<svg width="248" height="184" viewBox="0 0 248 184" fill="none" xmlns="http://www.w3.org/2000/svg">
<path d="M222.859 169.895H206.479V170.019H222.859V169.895Z" fill="#EBEBEB"/>
<path d="M164.164 171.237H159.865V171.36H164.164V171.237Z" fill="#EBEBEB"/>
<path d="M205.983 165.302H196.492V165.426H205.983V165.302Z" fill="#EBEBEB"/>
<path d="M47.6634 166.133H26.3027V166.257H47.6634V166.133Z" fill="#EBEBEB"/>
<path d="M55.2022 166.133H52.0703V166.257H55.2022V166.133Z" fill="#EBEBEB"/>
<path d="M111.709 168.222H65.3828V168.346H111.709V168.222Z" fill="#EBEBEB"/>
<path d="M118.263 139.879H22.7681C21.2118 139.879 19.9453 138.613 19.9453 137.057V2.82283C19.9453 1.26651 21.2118 0 22.7681 0H118.263C119.819 0 121.085 1.26651 121.085 2.82283V137.057C121.085 138.613 119.819 139.879 118.263 139.879ZM22.7681 0.124129C21.2796 0.124129 20.0689 1.33476 20.0689 2.82332V137.057C20.0689 138.546 21.2796 139.756 22.7681 139.756H118.263C119.751 139.756 120.962 138.546 120.962 137.057V2.82283C120.962 1.33476 119.751 0.123635 118.263 0.123635L22.7681 0.124129Z" fill="#EBEBEB"/>
<path d="M225.229 139.879H129.734C128.179 139.879 126.912 138.613 126.912 137.057V2.82283C126.912 1.26651 128.179 0 129.734 0H225.229C226.786 0 228.052 1.26651 228.052 2.82283V137.057C228.052 138.613 226.786 139.879 225.229 139.879ZM129.734 0.124129C128.246 0.124129 127.036 1.33476 127.036 2.82332V137.057C127.036 138.546 128.246 139.756 129.734 139.756H225.229C226.718 139.756 227.929 138.546 227.929 137.057V2.82283C227.929 1.33476 226.718 0.123635 225.229 0.123635L129.734 0.124129Z" fill="#EBEBEB"/>
<path d="M247.633 161.935H0.363281V162.058H247.633V161.935Z" fill="#EBEBEB"/>
<path d="M59.3786 128.48C58.9607 123.704 54.0851 121.916 48.3074 122.422C42.5302 122.927 38.0388 125.535 38.4567 130.311L59.3786 128.48Z" fill="#F0F0F0"/>
<path d="M48.113 120.239C50.7944 120.004 51.6505 117.739 51.4156 115.058C51.1812 112.376 49.9448 110.294 47.2634 110.529C44.582 110.764 43.726 113.029 43.9609 115.71C44.1953 118.392 45.4316 120.474 48.113 120.239Z" fill="#F0F0F0"/>
<path d="M168.556 26.7151C168.686 28.1938 167.592 29.4974 166.113 29.6264C164.635 29.756 163.331 28.6621 163.202 27.1834C163.072 25.7047 164.166 24.4011 165.645 24.2716C167.124 24.1425 168.427 25.2364 168.556 26.7151Z" fill="#F5F5F5"/>
<path d="M183.428 25.4138C183.557 26.8925 182.463 28.1961 180.985 28.3252C179.506 28.4547 178.202 27.3608 178.073 25.8821C177.943 24.4035 179.037 23.0999 180.516 22.9703C181.995 22.8412 183.298 23.9351 183.428 25.4138Z" fill="#F5F5F5"/>
<path d="M198.299 24.1126C198.428 25.5913 197.335 26.8949 195.856 27.0245C194.377 27.154 193.074 26.0601 192.944 24.5814C192.814 23.1028 193.908 21.7992 195.387 21.6696C196.866 21.54 198.169 22.634 198.299 24.1126Z" fill="#F5F5F5"/>
<path d="M169.883 41.8744C170.012 43.3531 168.919 44.6567 167.44 44.7863C165.961 44.9158 164.658 43.8219 164.528 42.3432C164.398 40.8646 165.492 39.561 166.971 39.4319C168.45 39.3018 169.754 40.3952 169.883 41.8744Z" fill="#F5F5F5"/>
<path d="M184.754 40.5725C184.884 42.0512 183.79 43.3548 182.311 43.4844C180.832 43.6139 179.529 42.52 179.399 41.0413C179.27 39.5627 180.363 38.2591 181.842 38.1295C183.321 38.0004 184.624 39.0943 184.754 40.5725Z" fill="#F5F5F5"/>
<path d="M199.625 39.2717C199.755 40.7503 198.661 42.0539 197.182 42.183C195.703 42.3126 194.4 41.2187 194.27 39.74C194.141 38.2613 195.235 36.9577 196.713 36.8281C198.192 36.6996 199.495 37.7935 199.625 39.2717Z" fill="#F5F5F5"/>
<path d="M171.21 57.0321C171.34 58.5107 170.246 59.8143 168.767 59.9439C167.289 60.0735 165.985 58.9795 165.856 57.5009C165.727 56.0222 166.82 54.7186 168.299 54.589C169.777 54.4595 171.081 55.5534 171.21 57.0321Z" fill="#F5F5F5"/>
<path d="M186.082 55.7309C186.212 57.2095 185.118 58.5131 183.639 58.6427C182.16 58.7723 180.857 57.6784 180.727 56.1997C180.598 54.721 181.692 53.4174 183.17 53.2883C184.649 53.1583 185.952 54.2522 186.082 55.7309Z" fill="#F5F5F5"/>
<path d="M200.953 54.43C201.083 55.9087 199.989 57.2123 198.51 57.3414C197.031 57.4704 195.728 56.377 195.598 54.8983C195.469 53.4197 196.563 52.1161 198.041 51.987C199.52 51.8574 200.824 52.9513 200.953 54.43Z" fill="#F5F5F5"/>
<path d="M197.74 55.303L167.184 57.9765L194.276 25.0565L166.518 27.4852C166.193 27.5134 165.907 27.2736 165.879 26.9491C165.851 26.6247 166.091 26.3389 166.415 26.3107L196.971 23.6372L169.879 56.5572L197.637 54.1285C197.962 54.1003 198.248 54.3402 198.276 54.6641C198.304 54.9885 198.064 55.2748 197.74 55.303Z" fill="#E6E6E6"/>
<path d="M198.206 114.067C198.105 113.776 197.845 113.56 197.537 113.54C196.136 113.446 194.952 112.921 194.014 111.98C192.792 110.753 192.074 108.886 191.958 106.669C191.936 106.256 191.59 105.934 191.176 105.932C190.718 105.929 190.353 106.315 190.378 106.772C190.519 109.373 191.398 111.597 192.893 113.098C194.06 114.27 195.566 114.957 197.282 115.107C197.312 115.109 197.351 115.113 197.395 115.116C197.964 115.161 198.393 114.606 198.206 114.067Z" fill="#F0F0F0"/>
<path d="M196.622 123.559C190.067 122.986 185.341 118.518 183.845 111.547C183.749 111.103 184.033 110.665 184.481 110.588C184.895 110.516 185.299 110.778 185.387 111.189C186.727 117.458 190.934 121.473 196.759 121.983C203.147 122.542 210.008 118.339 211.237 107.744C211.287 107.315 211.661 106.998 212.091 107.035C212.532 107.074 212.862 107.467 212.81 107.906C211.633 117.895 205.065 124.298 196.622 123.559Z" fill="#F0F0F0"/>
<path d="M184.256 104.599C183.815 104.56 183.485 104.167 183.537 103.728C184.715 93.7383 191.283 87.336 199.726 88.0744C207.124 88.7217 212.112 94.26 212.888 102.603C212.93 103.044 212.588 103.427 212.146 103.454H212.145C211.714 103.479 211.35 103.154 211.309 102.725C210.596 95.2081 206.157 90.2256 199.587 89.6509C193.199 89.0921 186.339 93.2942 185.11 103.89C185.06 104.319 184.686 104.636 184.256 104.599Z" fill="#F0F0F0"/>
<path d="M196.944 119.321C195.725 119.214 194.582 118.93 193.533 118.472C193.107 118.285 192.931 117.771 193.154 117.362C193.348 117.006 193.782 116.852 194.153 117.015C195.139 117.448 196.229 117.703 197.404 117.767C202.249 118.045 207.362 114.613 207.863 106.322C208.172 101.215 206.423 97.0902 203.157 95.1175C202.807 94.9059 202.676 94.4633 202.857 94.0963C203.062 93.6794 203.582 93.5256 203.98 93.7655C207.759 96.0473 209.789 100.703 209.443 106.417C208.96 114.412 203.972 119.73 197.313 119.348C197.19 119.341 197.066 119.332 196.944 119.321Z" fill="#F0F0F0"/>
<path d="M189.894 114.389C189.512 114.651 188.988 114.529 188.756 114.127C187.354 111.702 186.698 108.575 186.901 105.217C187.364 97.5686 191.949 92.3705 198.176 92.2682C198.638 92.2608 199.011 92.647 198.985 93.1084V93.1104C198.961 93.5213 198.627 93.8448 198.215 93.8527C193.598 93.9437 188.958 97.4341 188.482 105.312C188.297 108.37 188.882 111.193 190.136 113.351C190.342 113.705 190.233 114.158 189.894 114.389Z" fill="#F0F0F0"/>
<path d="M200.707 113.742C200.546 113.376 200.687 112.952 201.03 112.746C203.109 111.493 204.387 108.866 204.408 105.698C204.426 103.161 203.689 101.014 202.335 99.6542C201.29 98.6048 199.94 98.0767 198.321 98.0796C195.883 98.0861 193.909 99.4218 192.815 101.772C192.643 102.142 192.215 102.317 191.831 102.176C191.396 102.016 191.188 101.514 191.385 101.094C192.738 98.2062 195.277 96.5045 198.317 96.4961C200.344 96.4931 202.122 97.1969 203.456 98.5371C205.111 100.199 206.011 102.745 205.991 105.708C205.966 109.447 204.391 112.58 201.826 114.114C201.423 114.355 200.896 114.173 200.707 113.742Z" fill="#F0F0F0"/>
<path d="M195.017 107.928C194.568 108.109 194.065 107.848 193.949 107.377C193.897 107.163 193.853 106.942 193.819 106.715C193.372 103.756 194.963 101.179 197.52 100.722C198.84 100.485 200.017 100.796 200.916 101.599C201.281 101.925 201.253 102.507 200.855 102.793L200.806 102.828C200.506 103.042 200.111 102.994 199.831 102.754C199.295 102.293 198.613 102.134 197.798 102.28C195.849 102.628 195.109 104.656 195.385 106.478C195.411 106.656 195.445 106.828 195.485 106.993C195.579 107.381 195.388 107.779 195.017 107.928Z" fill="#F0F0F0"/>
<path d="M197.622 110.973C197.621 110.973 197.618 110.973 197.616 110.973C197.071 110.924 196.769 110.313 197.06 109.849L197.127 109.741C197.273 109.509 197.534 109.381 197.808 109.4C198.042 109.416 198.291 109.401 198.55 109.355C200.252 109.05 201.033 107.465 201.019 105.855C201.016 105.453 201.294 105.106 201.692 105.046C202.156 104.976 202.595 105.321 202.603 105.791C202.65 108.371 201.131 110.501 198.829 110.913C198.413 110.987 198.009 111.007 197.622 110.973Z" fill="#F0F0F0"/>
<path d="M197.978 108.052C197.136 107.978 196.508 107.41 196.28 106.6C196.148 106.13 196.542 105.675 197.027 105.717L197.209 105.733C197.491 105.758 197.723 105.951 197.817 106.218C197.863 106.348 197.951 106.46 198.116 106.475C198.496 106.508 198.563 105.962 198.573 105.852C198.58 105.774 198.596 105.471 198.467 105.293C198.339 105.118 198.252 104.917 198.271 104.702C198.333 103.998 199.222 103.715 199.671 104.261C200.027 104.695 200.21 105.303 200.15 105.99C200.037 107.285 199.123 108.152 197.978 108.052Z" fill="#F0F0F0"/>
<path d="M183.105 90.352C182.67 90.3139 182.348 89.9302 182.386 89.4945L182.986 82.6372L189.843 83.2371C190.279 83.2752 190.601 83.6589 190.563 84.0946C190.524 84.5303 190.141 84.8523 189.705 84.8142L184.425 84.3523L183.963 89.6325C183.925 90.0681 183.541 90.3901 183.105 90.352Z" fill="#F0F0F0"/>
<path d="M215.71 93.2047C215.274 93.1666 214.952 92.7828 214.99 92.3471L215.452 87.0669L210.172 86.6051C209.736 86.567 209.414 86.1832 209.452 85.7475C209.49 85.3118 209.874 84.9899 210.31 85.028L217.167 85.6278L216.567 92.4851C216.529 92.9208 216.145 93.2428 215.71 93.2047Z" fill="#F0F0F0"/>
<path d="M213.281 130.072L206.424 129.472C205.988 129.434 205.666 129.051 205.704 128.615C205.742 128.179 206.126 127.857 206.562 127.895L211.842 128.357L212.304 123.077C212.342 122.641 212.726 122.319 213.161 122.358C213.597 122.396 213.919 122.779 213.881 123.215L213.281 130.072Z" fill="#F0F0F0"/>
<path d="M185.953 127.682L179.096 127.082L179.696 120.225C179.734 119.789 180.117 119.467 180.553 119.505C180.989 119.543 181.311 119.927 181.273 120.363L180.811 125.643L186.091 126.105C186.527 126.143 186.849 126.526 186.811 126.962C186.772 127.398 186.389 127.72 185.953 127.682Z" fill="#F0F0F0"/>
<path d="M37.318 112.841C37.0504 112.865 36.814 112.667 36.7908 112.399L36.4219 108.183L40.6378 107.814C40.9059 107.791 41.1418 107.988 41.165 108.256C41.1882 108.524 40.9904 108.76 40.7224 108.784L37.4757 109.068L37.7596 112.314C37.7838 112.582 37.5855 112.818 37.318 112.841Z" fill="#E0E0E0"/>
<path d="M57.3699 111.088C57.1024 111.111 56.866 110.913 56.8427 110.645L56.5589 107.399L53.3122 107.682C53.0447 107.706 52.8083 107.508 52.7851 107.24C52.7618 106.972 52.9596 106.736 53.2277 106.713L57.4436 106.344L57.8125 110.56C57.8358 110.828 57.638 111.065 57.3699 111.088Z" fill="#E0E0E0"/>
<path d="M59.4442 129.241L55.2283 129.61C54.9607 129.633 54.7243 129.435 54.7011 129.167C54.6778 128.9 54.8756 128.663 55.1437 128.64L58.3903 128.356L58.1065 125.11C58.0832 124.842 58.281 124.606 58.5491 124.582C58.8166 124.559 59.053 124.757 59.0763 125.025L59.4442 129.241Z" fill="#E0E0E0"/>
<path d="M42.6453 130.712L38.4294 131.081L38.0604 126.864C38.0372 126.597 38.235 126.361 38.5031 126.337C38.7706 126.314 39.007 126.512 39.0302 126.78L39.3141 130.027L42.5608 129.743C42.8283 129.719 43.0647 129.917 43.0879 130.185C43.1112 130.452 42.9129 130.688 42.6453 130.712Z" fill="#E0E0E0"/>
<path d="M57.0304 42.528L40.8931 43.9399L40.5627 40.1636C40.22 36.2459 43.1284 32.7802 47.0456 32.4375C50.9634 32.0947 54.4291 35.0031 54.7718 38.9204L54.9637 41.1146L57.292 40.9109L57.1001 38.7166C56.6451 33.5151 52.0435 29.6542 46.8419 30.1092C41.6403 30.5642 37.7795 35.1658 38.2344 40.3674L38.5668 44.1655C36.689 44.5314 35.3523 46.2633 35.5224 48.2113L36.6752 61.3873C36.8576 63.4708 38.6944 65.0117 40.7779 64.8298L58.8434 63.2492C60.9269 63.0672 62.4678 61.2305 62.2858 59.147L61.1331 45.971C60.9506 43.887 59.1139 42.3455 57.0304 42.528ZM50.1756 52.6809L50.5727 57.2178C50.638 57.9626 50.0871 58.6188 49.3423 58.6841C48.5975 58.7494 47.9413 58.1985 47.876 57.4537L47.4789 52.9168C46.8864 52.5518 46.4636 51.9272 46.3983 51.1805C46.2885 49.9268 47.2163 48.8215 48.4699 48.7117C49.7236 48.602 50.8289 49.5297 50.9387 50.7834C51.0034 51.5296 50.6953 52.2185 50.1756 52.6809Z" fill="#EBEBEB"/>
<path d="M84.6512 50.1662L83.0198 47.5066C82.136 47.6287 81.413 47.6287 80.5293 47.5066L78.8978 50.1662L78.5847 50.0831C77.5333 49.8037 76.519 49.3824 75.5705 48.8319L75.2901 48.6692L75.982 45.7821C76.0379 45.5482 76.2728 45.4043 76.5067 45.4602C76.7406 45.5161 76.8845 45.751 76.8281 45.9849L76.2881 48.237C76.9928 48.6208 77.7336 48.9284 78.4972 49.1549L80.0906 46.5566L80.3789 46.6035C81.3027 46.7544 82.2453 46.7544 83.1691 46.6035L83.4574 46.5566L85.0508 49.1549C85.8144 48.9279 86.5552 48.6208 87.2599 48.237L86.5508 45.2772L86.7882 45.1071C87.435 44.6422 88.0116 44.0928 88.5067 43.4711C88.6535 43.2862 88.9152 43.2427 89.1065 43.3806C89.3053 43.5236 89.3518 43.8055 89.2 43.9973C88.7134 44.6116 88.1546 45.1615 87.5324 45.6382L88.2589 48.6692L87.979 48.8319C87.0305 49.3824 86.0162 49.8037 84.9648 50.0831L84.6512 50.1662ZM74.6517 44.3598C74.5147 44.2031 74.3821 44.0418 74.2551 43.8762L71.2235 44.6022L71.0608 44.3222C70.5104 43.3737 70.0891 42.3594 69.8096 41.308L69.7266 40.995L72.3862 39.3635C72.3249 38.9204 72.2952 38.5109 72.2952 38.1183C72.2952 37.7261 72.3254 37.3161 72.3862 36.873L69.7266 35.242L69.8096 34.929C70.0891 33.8776 70.5104 32.8633 71.0608 31.9148L71.2235 31.6349L74.2546 32.3608C74.7624 31.6982 75.3534 31.1077 76.0161 30.5993L75.4662 28.3056C75.4103 28.0722 75.5542 27.8378 75.7871 27.7819L75.7886 27.7814C76.022 27.7255 76.2564 27.8694 76.3123 28.1024L76.9968 30.9598L76.7574 31.1319C75.9978 31.6789 75.3317 32.345 74.7852 33.1046L74.6146 33.3415L71.6548 32.6323C71.2715 33.3371 70.9644 34.0779 70.7374 34.8414L73.3347 36.4344L73.2877 36.7227C73.2046 37.2325 73.1641 37.689 73.1641 38.1178C73.1641 38.5475 73.2046 39.0035 73.2877 39.5129L73.3347 39.8007L70.7369 41.3946C70.9634 42.1586 71.271 42.899 71.6543 43.6037L74.6141 42.8945L74.7847 43.1314C74.9454 43.3549 75.118 43.572 75.3 43.7802C75.4513 43.9533 75.4474 44.212 75.2817 44.3717L75.2659 44.387C75.0918 44.5567 74.8119 44.5428 74.6517 44.3598ZM92.325 44.6026L91.2073 44.3351C90.9734 44.2792 90.8295 44.0443 90.8854 43.8104C90.9413 43.577 91.1762 43.4326 91.4101 43.4885L91.8928 43.6042C92.276 42.8995 92.5832 42.1586 92.8101 41.3951L90.2123 39.8012L90.2593 39.5134C90.3424 39.004 90.383 38.5475 90.383 38.1183C90.383 37.689 90.3424 37.233 90.2593 36.7232L90.2123 36.4348L92.8097 34.8419C92.5832 34.0779 92.2756 33.3376 91.8923 32.6328L88.9325 33.342L88.7619 33.1051C88.2154 32.3455 87.5492 31.6794 86.7896 31.1324L86.5503 30.9603L87.2594 28.0005C86.5547 27.6172 85.8139 27.3096 85.0503 27.0826L83.4569 29.6804L83.1686 29.6339C82.2443 29.4841 81.3017 29.4841 80.3774 29.6339L80.0896 29.6804L78.4962 27.0831C78.3973 27.1123 78.2984 27.1435 78.1995 27.1756C77.9789 27.2478 77.7415 27.1291 77.6619 26.9115C77.5779 26.6825 77.697 26.4244 77.9285 26.3487C78.1456 26.2775 78.3647 26.2127 78.5828 26.1549L78.8963 26.0713L80.5278 28.7314C81.4155 28.6083 82.1301 28.6083 83.0178 28.7314L84.6493 26.0713L84.9628 26.1544C86.0142 26.4343 87.0285 26.8556 87.977 27.4056L88.2569 27.5683L87.5305 30.5998C88.1931 31.1082 88.7841 31.6986 89.292 32.3613L92.323 31.6353L92.4857 31.9153C93.0362 32.8638 93.4575 33.8781 93.7369 34.9295L93.82 35.2425L91.1604 36.8735C91.2217 37.3166 91.2514 37.7266 91.2514 38.1187C91.2514 38.5114 91.2212 38.9209 91.1604 39.364L93.82 40.9955L93.7369 41.3085C93.4575 42.3599 93.0362 43.3742 92.4857 44.3227L92.325 44.6026ZM81.6524 42.356C79.4428 42.2936 77.6001 40.452 77.5368 38.2424C77.473 36.0155 79.1371 34.1555 81.2849 33.9078C81.5446 33.8776 81.7745 34.0808 81.7745 34.3425C81.7745 34.562 81.6108 34.7465 81.3927 34.7712C79.4986 34.9858 78.0759 36.7771 78.4725 38.7968C78.7301 40.1083 79.787 41.1651 81.099 41.4213C83.2517 41.8421 85.1438 40.1973 85.1438 38.1183C85.1438 37.4224 84.9292 36.7489 84.534 36.1846C84.4094 36.0066 84.443 35.7633 84.6062 35.6193C84.8016 35.4468 85.1062 35.4829 85.2551 35.697C85.7471 36.4042 86.0142 37.2474 86.0142 38.1183C86.0132 40.4965 84.0454 42.4232 81.6524 42.356Z" fill="#F0F0F0"/>
<path d="M53.9267 86.3659L52.8728 84.6479C52.3021 84.727 51.8348 84.727 51.2641 84.6479L50.2102 86.3659L50.008 86.312C49.3285 86.1315 48.6732 85.8595 48.0605 85.5034L47.8795 85.3981L48.3265 83.5327C48.3626 83.3819 48.5145 83.2884 48.6653 83.325C48.8161 83.3611 48.9091 83.5129 48.873 83.6638L48.5243 85.1187C48.9798 85.3665 49.458 85.5653 49.9516 85.7116L50.9807 84.0332L51.1672 84.0638C51.7641 84.1613 52.3728 84.1613 52.9698 84.0638L53.1562 84.0332L54.1858 85.7116C54.6794 85.5653 55.1576 85.3665 55.6131 85.1187L55.1546 83.2068L55.3079 83.0965C55.7258 82.7963 56.0982 82.4413 56.4182 82.0397C56.5131 81.9205 56.6823 81.8923 56.8059 81.9813C56.934 82.0738 56.9641 82.2558 56.8662 82.3799C56.5517 82.7766 56.1907 83.1321 55.7886 83.4402L56.2579 85.3981L56.0769 85.5034C55.4642 85.859 54.8089 86.131 54.1294 86.312L53.9267 86.3659ZM47.4665 82.6153C47.378 82.514 47.2924 82.4101 47.2104 82.3028L45.252 82.7721L45.1471 82.5911C44.7916 81.9784 44.5196 81.3231 44.3391 80.6436L44.2852 80.4413L46.0032 79.3875C45.9636 79.1011 45.9443 78.8366 45.9443 78.5829C45.9443 78.3297 45.9636 78.0646 46.0032 77.7783L44.2852 76.7244L44.3391 76.5221C44.5196 75.8426 44.7916 75.1879 45.1471 74.5746L45.252 74.3936L47.2104 74.8629C47.5382 74.4347 47.92 74.0534 48.3483 73.725L47.9932 72.2434C47.9571 72.0925 48.0501 71.9412 48.2004 71.9051L48.2014 71.9046C48.3522 71.8685 48.5036 71.9615 48.5397 72.1123L48.9818 73.9584L48.827 74.0697C48.3364 74.4228 47.9062 74.8531 47.5531 75.3441L47.4428 75.4974L45.5304 75.0395C45.2831 75.495 45.0843 75.9732 44.9379 76.4667L46.6159 77.4959L46.5858 77.6823C46.5318 78.0117 46.5061 78.3064 46.5061 78.5839C46.5061 78.8613 46.5323 79.156 46.5858 79.4854L46.6164 79.6713L44.9384 80.701C45.0848 81.1945 45.2836 81.6727 45.5309 82.1282L47.4433 81.6703L47.5536 81.8236C47.6574 81.968 47.7687 82.1084 47.8864 82.243C47.9843 82.3547 47.9813 82.5219 47.8745 82.6247L47.8641 82.6346C47.7509 82.7419 47.5704 82.733 47.4665 82.6153ZM58.8839 82.7716L58.1619 82.599C58.0111 82.5629 57.9176 82.4111 57.9537 82.2603C57.9898 82.1094 58.1416 82.0165 58.2925 82.0526L58.6045 82.1272C58.8518 81.6718 59.0506 81.1935 59.197 80.7L57.519 79.6704L57.5497 79.4844C57.6031 79.1555 57.6293 78.8603 57.6293 78.5829C57.6293 78.3054 57.6031 78.0107 57.5497 77.6813L57.5195 77.4949L59.1975 76.4657C59.0511 75.9722 58.8523 75.494 58.605 75.0385L56.6926 75.4965L56.5824 75.3431C56.2293 74.8526 55.799 74.4218 55.3084 74.0687L55.1536 73.9575L55.6121 72.0451C55.1566 71.7973 54.6784 71.599 54.1848 71.4521L53.1557 73.1301L52.9698 73.0999C52.3728 73.003 51.7641 73.003 51.1667 73.0999L50.9807 73.1301L49.9516 71.4521C49.8878 71.4709 49.8235 71.4912 49.7602 71.512C49.6178 71.5584 49.4645 71.4818 49.413 71.3413C49.3586 71.1935 49.4358 71.0268 49.5851 70.9779C49.7256 70.9319 49.867 70.8898 50.0075 70.8527L50.2102 70.7988L51.2641 72.5174C51.8378 72.4377 52.2992 72.4377 52.8728 72.5174L53.9267 70.7988L54.129 70.8527C54.808 71.0337 55.4632 71.3057 56.0764 71.6608L56.2574 71.7662L55.7881 73.7245C56.2164 74.0529 56.5977 74.4342 56.9261 74.8625L58.8844 74.3931L58.9893 74.5741C59.3449 75.1869 59.6168 75.8421 59.7974 76.5216L59.8513 76.7239L58.1332 77.7778C58.1728 78.0641 58.1921 78.3287 58.1921 78.5824C58.1921 78.8361 58.1728 79.1006 58.1332 79.387L59.8513 80.4408L59.7974 80.6431C59.6168 81.3226 59.3449 81.9779 58.9893 82.5906L58.8839 82.7716ZM51.9896 81.3201C50.5618 81.2801 49.372 80.0902 49.3309 78.6625C49.2894 77.2239 50.3645 76.0222 51.7522 75.8619C51.9198 75.8426 52.0682 75.9742 52.0682 76.1428C52.0682 76.2847 51.9624 76.4039 51.8214 76.4198C50.5979 76.5582 49.6786 77.7154 49.9348 79.0205C50.1009 79.8677 50.7839 80.5506 51.6315 80.7163C53.0222 80.9883 54.2447 79.9255 54.2447 78.5824C54.2447 78.1328 54.1062 77.6976 53.851 77.3332C53.7704 77.2184 53.7922 77.0607 53.8975 76.9677C54.0241 76.8559 54.2204 76.8797 54.3169 77.0182C54.6349 77.4751 54.8075 78.0196 54.8075 78.5824C54.8065 80.1189 53.535 81.3642 51.9896 81.3201Z" fill="#E6E6E6"/>
<path d="M123.999 184.001C176.955 184.001 219.885 181.494 219.885 178.401C219.885 175.308 176.955 172.801 123.999 172.801C71.0427 172.801 28.1133 175.308 28.1133 178.401C28.1133 181.494 71.0427 184.001 123.999 184.001Z" fill="#F5F5F5"/>
<path d="M180.106 44.9404H164.003L152.613 175.127H168.716C173.295 175.127 177.347 171.402 177.747 166.822L187.684 53.2452C188.085 48.6658 184.685 44.9404 180.106 44.9404Z" fill="#924884"/>
<path opacity="0.3" d="M176.818 44.9404H122.32C117.741 44.9404 113.69 48.6658 113.289 53.2452L103.352 166.822C102.952 171.402 106.351 175.127 110.931 175.127H165.428C170.008 175.127 174.059 171.402 174.46 166.822L184.396 53.2452C184.797 48.6658 181.398 44.9404 176.818 44.9404Z" fill="white"/>
<path opacity="0.4" d="M176.586 47.6016H162.218C161.37 47.6016 160.575 48.1579 160.261 48.97C159.099 51.9718 156.157 54.0276 153.024 54.0276H144.527C141.394 54.0276 138.811 51.9713 138.175 48.97C138.003 48.1579 137.305 47.6021 136.457 47.6021H122.089C118.971 47.6021 116.224 50.1287 115.951 53.2457L106.014 166.823C105.742 169.94 108.047 172.467 111.164 172.467H165.662C168.779 172.467 171.527 169.94 171.8 166.823L181.736 53.2457C182.009 50.1287 179.703 47.6016 176.586 47.6016Z" fill="white"/>
<path d="M163.009 109.295H124.868C123.737 109.295 122.901 108.378 123 107.248L123.191 105.065C123.29 103.934 124.287 103.018 125.418 103.018H163.559C164.69 103.018 165.526 103.935 165.427 105.065L165.236 107.248C165.137 108.378 164.14 109.295 163.009 109.295Z" fill="white"/>
<path d="M162.185 118.711H124.044C122.913 118.711 122.077 117.794 122.176 116.664L122.367 114.481C122.466 113.35 123.463 112.434 124.594 112.434H162.735C163.866 112.434 164.702 113.351 164.603 114.481L164.412 116.664C164.313 117.794 163.316 118.711 162.185 118.711Z" fill="white"/>
<path opacity="0.1" d="M151.421 49.7279C151.311 50.9821 150.206 51.9984 148.952 51.9984C147.697 51.9984 146.77 50.9821 146.88 49.7279C146.99 48.4738 148.095 47.4575 149.349 47.4575C150.603 47.4575 151.531 48.4738 151.421 49.7279Z" fill="#0B0515"/>
<path opacity="0.1" d="M150.388 49.7281C150.328 50.413 149.725 50.9684 149.039 50.9684C148.354 50.9684 147.847 50.413 147.907 49.7281C147.967 49.0432 148.571 48.4878 149.256 48.4878C149.942 48.4878 150.448 49.0432 150.388 49.7281Z" fill="#0B0515"/>
<g opacity="0.8">
<path d="M169.87 53.5146C169.502 53.5146 169.23 53.2169 169.262 52.8495L169.369 51.6334C169.401 51.266 169.725 50.9683 170.092 50.9683C170.46 50.9683 170.732 51.266 170.699 51.6334L170.593 52.8495C170.561 53.2169 170.237 53.5146 169.87 53.5146Z" fill="white"/>
<path d="M175.194 53.5144C174.826 53.5144 174.554 53.2167 174.587 52.8492L174.836 49.9952C174.868 49.6278 175.192 49.3301 175.56 49.3301C175.927 49.3301 176.199 49.6278 176.167 49.9952L175.917 52.8492C175.885 53.2167 175.561 53.5144 175.194 53.5144Z" fill="white"/>
<path d="M172.532 53.5148C172.164 53.5148 171.892 53.217 171.924 52.8496L172.102 50.8146C172.135 50.4471 172.459 50.1494 172.826 50.1494C173.193 50.1494 173.465 50.4471 173.433 50.8146L173.255 52.8496C173.223 53.217 172.899 53.5148 172.532 53.5148Z" fill="white"/>
</g>
<g opacity="0.8">
<path d="M124.303 53.5151H120.962C120.754 53.5151 120.6 53.3465 120.619 53.1383L120.775 51.3446C120.794 51.1364 120.977 50.9678 121.185 50.9678H124.526C124.734 50.9678 124.888 51.1364 124.869 51.3446L124.712 53.1383C124.694 53.3465 124.511 53.5151 124.303 53.5151Z" fill="white"/>
<path d="M125.851 53.0282C125.643 53.0282 125.489 52.8596 125.507 52.6514L125.579 51.8309C125.597 51.6227 125.781 51.4541 125.989 51.4541C126.197 51.4541 126.351 51.6227 126.332 51.8309L126.261 52.6514C126.243 52.8596 126.059 53.0282 125.851 53.0282Z" fill="white"/>
</g>
<path d="M156.729 94.95C163.384 88.5799 164.047 78.4728 158.21 72.3753C152.374 66.2777 142.247 66.4986 135.592 72.8687C128.938 79.2388 128.275 89.3459 134.111 95.4434C139.948 101.541 150.074 101.32 156.729 94.95Z" fill="white"/>
<path d="M146.218 83.293C142.022 83.293 138.48 84.8893 138.177 88.3585L137.84 92.2085H153.037L153.373 88.3585C153.676 84.8893 150.414 83.293 146.218 83.293Z" fill="#924884"/>
<path d="M146.358 81.7074C148.305 81.7074 149.203 80.1288 149.374 78.1813C149.544 76.2338 148.922 74.6553 146.975 74.6553C145.027 74.6553 144.129 76.2338 143.958 78.1813C143.788 80.1288 144.41 81.7074 146.358 81.7074Z" fill="#924884"/>
<path d="M161.266 106.044C160.23 106.044 159.355 106.439 159.28 107.296L159.197 108.247H162.951L163.034 107.296C163.109 106.439 162.303 106.044 161.266 106.044Z" fill="#924884"/>
<path d="M161.302 105.653C161.783 105.653 162.005 105.263 162.047 104.782C162.089 104.301 161.936 103.911 161.455 103.911C160.973 103.911 160.752 104.301 160.71 104.782C160.668 105.263 160.822 105.653 161.302 105.653Z" fill="#924884"/>
<path d="M149.711 128.127H134.87C133.137 128.127 131.855 126.722 132.006 124.988C132.158 123.255 133.686 121.85 135.42 121.85H150.26C151.994 121.85 153.276 123.255 153.124 124.988C152.972 126.722 151.444 128.127 149.711 128.127Z" fill="#924884"/>
<path d="M147.921 163.131H132.037C130.206 163.131 128.851 161.646 129.011 159.814L130.024 148.229C130.184 146.398 131.799 144.913 133.631 144.913H149.514C151.346 144.913 152.701 146.398 152.541 148.229L151.527 159.814C151.367 161.646 149.752 163.131 147.921 163.131Z" fill="#924884"/>
<g opacity="0.6">
<path d="M143.019 151.156C143.116 150.053 142.3 149.16 141.198 149.16C140.095 149.16 139.124 150.053 139.027 151.156C138.97 151.812 139.24 152.39 139.698 152.753L139.349 156.742C139.291 157.397 139.775 157.927 140.43 157.927C141.085 157.927 141.662 157.397 141.719 156.742L142.069 152.753C142.59 152.39 142.962 151.812 143.019 151.156Z" fill="white"/>
</g>
<path d="M149.649 147.324H147.602L148.104 141.592C148.405 138.148 145.848 135.346 142.404 135.346C138.959 135.346 135.912 138.148 135.611 141.592L135.109 147.324H133.062L133.564 141.592C133.964 137.019 138.01 133.299 142.583 133.299C147.156 133.299 150.551 137.019 150.151 141.592L149.649 147.324Z" fill="#924884"/>
<path d="M161.52 114.822L161.568 114.272C161.617 113.71 161.2 113.253 160.638 113.253C160.075 113.253 159.578 113.71 159.529 114.272L159.481 114.822C159.257 114.822 159.059 115.004 159.04 115.229L158.912 116.69C158.892 116.915 159.058 117.097 159.283 117.097H161.32C161.545 117.097 161.742 116.915 161.762 116.69L161.89 115.229C161.91 115.004 161.744 114.822 161.52 114.822ZM160.616 113.504C161.039 113.504 161.353 113.848 161.317 114.272L161.269 114.822H159.733L159.781 114.272C159.818 113.848 160.193 113.504 160.616 113.504Z" fill="#924884"/>
<path d="M130.85 115.408L130.139 115.261C130.055 115.244 130.011 115.155 130.047 115.072L130.343 114.372C130.407 114.222 130.224 114.11 130.108 114.229L129.571 114.783C129.507 114.849 129.405 114.849 129.353 114.783L128.912 114.229C128.818 114.111 128.615 114.222 128.652 114.372L128.826 115.072C128.847 115.155 128.788 115.244 128.7 115.261L127.964 115.408C127.805 115.44 127.786 115.662 127.939 115.693L128.65 115.84C128.734 115.857 128.778 115.946 128.742 116.029L128.446 116.729C128.382 116.88 128.565 116.991 128.681 116.872L129.218 116.318C129.282 116.252 129.384 116.252 129.436 116.318L129.877 116.872C129.971 116.991 130.174 116.88 130.137 116.729L129.963 116.029C129.942 115.946 130.001 115.857 130.089 115.84L130.825 115.693C130.984 115.662 131.003 115.439 130.85 115.408Z" fill="#0B0515"/>
<path d="M135.53 115.408L134.819 115.261C134.735 115.244 134.691 115.155 134.726 115.072L135.023 114.372C135.086 114.222 134.903 114.11 134.788 114.229L134.251 114.783C134.187 114.849 134.085 114.849 134.033 114.783L133.592 114.229C133.497 114.111 133.295 114.222 133.332 114.372L133.506 115.072C133.527 115.155 133.467 115.244 133.38 115.261L132.643 115.408C132.485 115.44 132.466 115.662 132.618 115.693L133.329 115.84C133.413 115.857 133.457 115.946 133.422 116.029L133.126 116.729C133.062 116.88 133.245 116.991 133.36 116.872L133.897 116.318C133.961 116.252 134.063 116.252 134.116 116.318L134.556 116.872C134.651 116.991 134.853 116.88 134.816 116.729L134.642 116.029C134.622 115.946 134.681 115.857 134.768 115.84L135.505 115.693C135.663 115.662 135.683 115.439 135.53 115.408Z" fill="#0B0515"/>
<path d="M140.21 115.408L139.498 115.261C139.414 115.244 139.371 115.155 139.406 115.072L139.702 114.372C139.766 114.222 139.583 114.11 139.468 114.229L138.93 114.783C138.866 114.849 138.764 114.849 138.712 114.783L138.272 114.229C138.177 114.111 137.975 114.222 138.012 114.372L138.185 115.072C138.206 115.155 138.147 115.244 138.06 115.261L137.323 115.408C137.165 115.44 137.145 115.662 137.298 115.693L138.009 115.84C138.093 115.857 138.137 115.946 138.101 116.029L137.805 116.729C137.741 116.88 137.924 116.991 138.04 116.872L138.577 116.318C138.641 116.252 138.743 116.252 138.795 116.318L139.236 116.872C139.33 116.991 139.533 116.88 139.496 116.729L139.322 116.029C139.301 115.946 139.36 115.857 139.448 115.84L140.184 115.693C140.343 115.662 140.362 115.439 140.21 115.408Z" fill="#0B0515"/>
<path d="M144.893 115.408L144.182 115.261C144.098 115.244 144.054 115.155 144.09 115.072L144.386 114.372C144.45 114.222 144.267 114.11 144.151 114.229L143.614 114.783C143.55 114.849 143.448 114.849 143.396 114.783L142.955 114.229C142.861 114.111 142.658 114.222 142.695 114.372L142.869 115.072C142.89 115.155 142.831 115.244 142.743 115.261L142.007 115.408C141.848 115.44 141.829 115.662 141.982 115.693L142.693 115.84C142.777 115.857 142.821 115.946 142.785 116.029L142.489 116.729C142.425 116.88 142.608 116.991 142.724 116.872L143.261 116.318C143.325 116.252 143.427 116.252 143.479 116.318L143.92 116.872C144.014 116.991 144.217 116.88 144.18 116.729L144.006 116.029C143.985 115.946 144.044 115.857 144.132 115.84L144.868 115.693C145.026 115.662 145.046 115.439 144.893 115.408Z" fill="#0B0515"/>
<path d="M149.569 115.408L148.858 115.261C148.774 115.244 148.73 115.155 148.765 115.072L149.062 114.372C149.125 114.222 148.942 114.11 148.827 114.229L148.29 114.783C148.226 114.849 148.123 114.849 148.072 114.783L147.631 114.229C147.536 114.111 147.334 114.222 147.371 114.372L147.545 115.072C147.566 115.155 147.507 115.244 147.419 115.261L146.682 115.408C146.524 115.44 146.505 115.662 146.657 115.693L147.368 115.84C147.452 115.857 147.496 115.946 147.461 116.029L147.165 116.729C147.101 116.88 147.284 116.991 147.399 116.872L147.937 116.318C148 116.252 148.102 116.252 148.155 116.318L148.595 116.872C148.69 116.991 148.892 116.88 148.855 116.729L148.681 116.029C148.661 115.946 148.72 115.857 148.807 115.84L149.544 115.693C149.702 115.662 149.722 115.439 149.569 115.408Z" fill="#0B0515"/>
<path d="M154.253 115.408L153.541 115.261C153.457 115.244 153.414 115.155 153.449 115.072L153.745 114.372C153.809 114.222 153.626 114.11 153.511 114.229L152.973 114.783C152.909 114.849 152.808 114.849 152.755 114.783L152.315 114.229C152.22 114.111 152.018 114.222 152.055 114.372L152.228 115.072C152.249 115.155 152.19 115.244 152.103 115.261L151.366 115.408C151.208 115.44 151.188 115.662 151.341 115.693L152.052 115.84C152.136 115.857 152.18 115.946 152.144 116.029L151.848 116.729C151.784 116.88 151.967 116.991 152.083 116.872L152.62 116.318C152.684 116.252 152.786 116.252 152.838 116.318L153.279 116.872C153.373 116.991 153.576 116.88 153.539 116.729L153.365 116.029C153.344 115.946 153.403 115.857 153.491 115.84L154.227 115.693C154.386 115.662 154.405 115.439 154.253 115.408Z" fill="#0B0515"/>
<path d="M142.964 105.168H134.177C133.631 105.168 133.149 105.611 133.102 106.157C133.054 106.703 133.458 107.146 134.004 107.146H142.791C143.336 107.146 143.818 106.703 143.866 106.157C143.914 105.611 143.51 105.168 142.964 105.168Z" fill="#0B0515"/>
<path d="M151.881 105.168H146.782C146.236 105.168 145.755 105.611 145.707 106.157C145.659 106.703 146.063 107.146 146.609 107.146H151.708C152.254 107.146 152.735 106.703 152.783 106.157C152.831 105.611 152.427 105.168 151.881 105.168Z" fill="#0B0515"/>
<path d="M158.617 149.999C155.304 151.322 152.4 153.252 150.412 155.446C149.246 154.454 147.589 153.765 145.602 153.45L145.369 153.413L145.268 154.579L145.398 154.628C147.358 155.369 148.954 156.684 150.013 158.429L150.179 158.703L150.363 158.409C152.401 155.147 155.372 152.414 158.729 150.714L158.843 150.656L158.91 149.881L158.617 149.999Z" fill="#0B0515"/>
<path opacity="0.2" d="M114.43 52.6294C113.813 53.7159 113.405 54.928 113.292 56.2123L105.928 140.393H128.715L133.293 122.841L131.786 105.288L136.365 87.7352L134.858 70.1826L139.436 52.6299H114.43V52.6294Z" fill="#0B0515"/>
<path opacity="0.7" d="M132.88 65.2358L137.458 47.6826H79.8324L75.254 65.2358L76.7613 82.7884L72.1829 100.341L73.6898 117.894L69.1113 135.447H126.737L131.315 117.894L129.809 100.341L134.387 82.7884L132.88 65.2358Z" fill="white"/>
<path opacity="0.5" d="M132.878 65.2358H75.252L79.8304 47.6826H137.456L132.878 65.2358Z" fill="white"/>
<path opacity="0.5" d="M129.809 100.341H72.1836L76.762 82.7886H134.388L129.809 100.341Z" fill="white"/>
<path opacity="0.5" d="M126.737 135.447H69.1113L73.6898 117.895H131.315L126.737 135.447Z" fill="white"/>
<path opacity="0.2" d="M125.172 72.5712C124.677 72.726 124.043 72.819 123.352 72.819C122.335 72.819 121.441 72.6177 120.933 72.3146C120.793 72.231 120.64 72.1895 120.486 72.1895C120.344 72.1895 120.202 72.2295 120.071 72.3012C120.061 72.3067 120.05 72.3086 120.04 72.3146C120.035 72.318 120.028 72.3205 120.023 72.324C119.834 72.4338 119.597 72.5302 119.32 72.6078C118.845 72.7409 118.257 72.8195 117.621 72.8195C117.449 72.8195 117.279 72.8136 117.115 72.8027C116.622 72.7691 116.172 72.6879 115.801 72.5722C115.736 72.552 115.671 72.5401 115.607 72.5356C115.159 72.506 114.756 72.8502 114.756 73.3259V73.862H92.3576C90.6242 73.862 89.2188 75.267 89.2188 77.0008V80.1639C89.2188 81.8973 90.6242 83.3027 92.3576 83.3027H117.84C117.896 83.3027 117.95 83.2973 118.006 83.2943C118.281 83.5218 118.568 83.7488 118.871 83.9788C119.234 84.2537 119.616 84.5327 120.017 84.8234C120.296 85.0257 120.678 85.0257 120.957 84.8234C124.161 82.4996 126.219 80.8968 126.219 76.4929V73.3264C126.218 72.7819 125.691 72.409 125.172 72.5712Z" fill="#0B0515"/>
<path d="M117.351 81.5599H91.8693C90.1359 81.5599 88.7305 80.1549 88.7305 78.421V75.258C88.7305 73.5246 90.1355 72.1191 91.8693 72.1191H117.351C119.085 72.1191 120.49 73.5241 120.49 75.258V78.421C120.49 80.1544 119.085 81.5599 117.351 81.5599Z" fill="#924884"/>
<path opacity="0.3" d="M122.865 71.0767C121.848 71.0767 120.954 70.8754 120.445 70.5723C120.166 70.4056 119.833 70.4056 119.553 70.5723C119.045 70.8754 118.151 71.0767 117.133 71.0767C116.442 71.0767 115.809 70.9837 115.314 70.8294C114.795 70.6672 114.268 71.0396 114.268 71.5836V74.7501C114.268 79.154 116.325 80.7568 119.529 83.0806C119.808 83.2829 120.191 83.2829 120.47 83.0806C123.674 80.7568 125.731 79.154 125.731 74.7501V71.5836C125.731 71.0396 125.204 70.6672 124.685 70.8294C124.19 70.9837 123.556 71.0767 122.865 71.0767Z" fill="white"/>
<path opacity="0.2" d="M119.553 70.5724C119.045 70.8755 118.151 71.0768 117.133 71.0768C116.442 71.0768 115.809 70.9838 115.314 70.8295C114.795 70.6673 114.268 71.0397 114.268 71.5832V74.7502C114.268 79.1541 116.325 80.7569 119.529 83.0807C119.668 83.1816 119.834 83.2326 119.999 83.2326V70.4473C119.846 70.4473 119.693 70.4888 119.553 70.5724Z" fill="white"/>
<path d="M124.589 73.8852C122.518 74.7418 120.746 75.9915 119.584 77.4128C118.773 76.7704 117.661 76.3243 116.356 76.1201L116.203 76.0963V76.852L116.29 76.8836C117.602 77.3633 118.71 78.2149 119.495 79.3449L119.618 79.5225L119.72 79.3321C120.855 77.2194 122.625 75.4495 124.702 74.3486L124.773 74.311V73.8091L124.589 73.8852Z" fill="#0B0515"/>
<path d="M136.437 52.6189H134.25C133.038 52.6189 132.141 51.6362 132.247 50.4236L132.438 48.2372C132.544 47.0246 133.613 46.042 134.826 46.042H137.012C138.225 46.042 139.121 47.0251 139.016 48.2372L138.824 50.4236C138.718 51.6362 137.649 52.6189 136.437 52.6189Z" fill="#924884"/>
<path d="M137.344 48.2327L136.87 47.7124L135.676 48.8103L134.674 47.7124L134.108 48.2327L135.11 49.3305L133.916 50.4284L134.391 50.9487L135.585 49.8508L136.587 50.9487L137.152 50.4284L136.15 49.3305L137.344 48.2327Z" fill="white"/>
<path d="M87.5888 71.4824C88.8563 72.8607 90.0675 74.2884 91.2633 75.7295C92.4605 77.1691 93.6281 78.6344 94.7814 80.1126C94.8319 80.1769 94.8116 80.1507 94.8235 80.17C94.8289 80.1784 94.8299 80.1922 94.8368 80.1992C94.8497 80.2135 94.8566 80.2372 94.8719 80.2501C94.8947 80.2867 94.9278 80.3129 94.9609 80.3475C95.0312 80.4103 95.1271 80.4583 95.2339 80.4781C95.2868 80.486 95.3427 80.4939 95.3996 80.488C95.4302 80.4919 95.4574 80.4825 95.4896 80.4815C95.5064 80.482 95.5188 80.4731 95.5351 80.4712C95.5603 80.4603 95.5445 80.4825 95.6127 80.442L96.8516 79.7704C98.5132 78.8906 100.188 78.0306 101.921 77.2586L103.369 79.0518C101.973 80.3361 100.52 81.9424 99.0527 83.1194L97.945 83.9903C97.9168 84.016 97.7976 84.0941 97.7229 84.1441C97.6374 84.199 97.5538 84.2583 97.4633 84.3068C97.2838 84.4057 97.1028 84.5046 96.9104 84.5808C96.5306 84.745 96.1251 84.8493 95.7141 84.9126C94.8897 85.0353 94.0332 84.9522 93.2335 84.6658C92.8349 84.5224 92.4487 84.331 92.0971 84.0867C91.917 83.97 91.7524 83.833 91.5882 83.6951C91.5056 83.6263 91.4319 83.5497 91.3548 83.475L91.1579 83.2757C89.8494 81.9335 88.5552 80.5785 87.2901 79.1977C86.0241 77.818 84.7729 76.4258 83.5781 74.9838L87.5888 71.4824Z" fill="#924884"/>
<path d="M101.246 78.3501L102.399 74.6475L105.433 76.1598C105.433 76.1598 104.991 78.8614 102.782 79.3298L101.246 78.3501Z" fill="#924884"/>
<path d="M103.615 73.6206L106.352 74.3743L105.433 76.1596L102.398 74.6473L103.615 73.6206Z" fill="#924884"/>
<path d="M71.6284 72.4904C71.298 74.0636 70.8945 75.6189 70.4716 77.1698C70.0508 78.7211 69.5914 80.2631 69.1136 81.8006L68.9356 82.3773L68.8466 82.6656C68.8278 82.7284 68.8154 82.7442 68.7986 82.7862C68.7442 82.9321 68.7116 83.0904 68.7051 83.2566C68.6967 83.5859 68.7749 83.9524 68.9905 84.2709C69.0083 84.3223 69.1789 84.5013 69.3119 84.6457L69.7224 85.0918L70.532 85.9983C71.0651 86.61 71.5962 87.2237 72.1006 87.8691L70.3772 89.8641C69.6655 89.4591 68.9811 89.0224 68.2981 88.5837L67.2838 87.9146L66.7824 87.5729C66.6118 87.4542 66.4748 87.3746 66.2018 87.1486C65.2612 86.3509 64.5584 85.2184 64.3008 83.9608C64.1692 83.3332 64.1371 82.6789 64.2103 82.0311C64.2296 81.8758 64.2587 81.6948 64.2825 81.5618L64.3349 81.2646L64.4397 80.6701C64.7172 79.0841 65.0129 77.5026 65.3467 75.93C65.6791 74.3573 66.0307 72.7891 66.455 71.2388L71.6284 72.4904Z" fill="#924884"/>
<path d="M70.4062 87.728L72.4467 86.6846L73.3468 90.1528C73.3468 90.1528 71.7094 90.7803 70.4419 89.9742L70.4062 87.728Z" fill="#924884"/>
<path d="M75.2691 85.5752L75.3616 88.7566L73.0832 90.2466L72.293 86.7517L75.2691 85.5752Z" fill="#924884"/>
<path d="M82.1328 56.5601C82.1328 56.5601 82.9775 57.8607 83.7297 58.418C83.3781 58.9111 82.6036 58.876 82.6036 58.876L82.1328 56.5601Z" fill="#924884"/>
<path d="M74.8023 59.5859C75.3478 61.8544 75.8923 66.011 73.9453 67.5243C73.9453 67.5243 74.7059 69.8254 79.8773 69.8254C85.5635 69.8254 82.5948 68.3432 82.5948 68.3432C79.4916 67.7394 79.5712 65.0437 80.1117 63.2811L74.8023 59.5859Z" fill="#924884"/>
<path d="M73.3418 67.9454C73.003 67.3148 72.6297 66.5938 73.4016 66.3678C74.2508 66.119 79.706 65.6581 81.3083 66.125C80.8158 67.0008 81.6495 68.0774 81.6495 68.0774L73.3418 67.9454Z" fill="#0B0515"/>
<path d="M77.8594 174.062H81.4275L81.7826 166.88H78.2149L77.8594 174.062Z" fill="#924884"/>
<path d="M55.2188 173.072L58.8323 173.263L61.0286 166.189L57.4145 165.998L55.2188 173.072Z" fill="#924884"/>
<path d="M58.7199 172.977L55.315 172.24C55.1914 172.213 55.0653 172.276 55.0124 172.391L53.8304 174.956C53.7078 175.222 53.87 175.534 54.1573 175.59C55.3501 175.827 55.9431 175.883 57.4401 176.207C58.3614 176.406 60.4404 176.913 61.7129 177.188C62.9571 177.458 63.4235 176.242 62.9275 176.015C60.703 174.999 59.7738 174.104 59.1714 173.27C59.0631 173.12 58.9014 173.017 58.7199 172.977Z" fill="#0B0515"/>
<path d="M81.2388 173.702H77.8527C77.7261 173.702 77.6163 173.79 77.5886 173.914L76.9759 176.67C76.9126 176.956 77.1292 177.226 77.422 177.221C78.6435 177.201 80.4085 177.129 81.944 177.129C83.7392 177.129 85.2896 177.227 87.3948 177.227C88.6678 177.227 89.0209 175.94 88.4883 175.823C86.0626 175.293 84.0819 175.236 81.9856 173.943C81.7581 173.803 81.5064 173.702 81.2388 173.702Z" fill="#0B0515"/>
<path d="M67.4852 68.5731C64.7925 69.8535 64.0605 77.6152 64.0605 77.6152L70.722 80.6933C70.722 80.6933 72.3752 78.2577 72.5018 74.4279C72.6344 70.4158 70.2383 67.2641 67.4852 68.5731Z" fill="#0B0515"/>
<path opacity="0.4" d="M71.1009 73.3594C69.8982 75.2263 70.0119 78.1149 70.4283 80.5559L70.7226 80.6939C70.7226 80.6939 72.3778 78.2553 72.5049 74.4266C72.5123 74.1872 72.5113 73.9494 72.5029 73.7179L71.1009 73.3594Z" fill="#0B0515"/>
<path opacity="0.6" d="M86.0733 68.3852C86.0733 68.3852 89.3739 72.1131 86.2568 95.1868C81.2595 95.1868 72.1031 95.1868 69.6715 95.1868C69.5572 92.6409 71.1571 80.2215 68.7012 68.2255C68.7012 68.2255 71.5443 67.6548 74.2534 67.5243C76.3725 67.4224 79.4406 67.3546 81.3035 67.5243C83.7599 67.7488 86.0733 68.3852 86.0733 68.3852Z" fill="#FAFAFA"/>
<path opacity="0.2" d="M87.5241 75.438L87.4608 75.3831L84.1623 73.6206C83.827 78.6995 86.0974 81.8834 87.448 83.276C87.6339 80.0219 87.6295 77.4553 87.5241 75.438Z" fill="#0B0515"/>
<path opacity="0.2" d="M81.7794 166.882L81.5969 170.584H78.0273L78.2098 166.882H81.7794Z" fill="#0B0515"/>
<path opacity="0.2" d="M57.4113 165.999L61.0264 166.19L59.8924 169.837L56.2773 169.646L57.4113 165.999Z" fill="#0B0515"/>
<path d="M73.6597 57.2803C74.4564 60.253 74.7714 62.0334 76.6061 63.2692C79.3652 65.1282 82.8007 62.9947 82.908 59.844C83.005 57.0083 81.6855 52.6238 78.4958 52.0244C75.353 51.4344 72.863 54.3077 73.6597 57.2803Z" fill="#924884"/>
<path d="M80.3789 95.1865C80.3789 95.1865 76.8597 118.883 74.928 127.761C72.8124 137.483 61.4687 169.648 61.4687 169.648L55.918 168.446C55.918 168.446 63.0314 142.234 64.8068 128.643C65.4997 123.339 66.3359 114.789 67.3942 107.661C68.4189 100.758 69.677 95.1865 69.677 95.1865H80.3789Z" fill="#0B0515"/>
<path opacity="0.6" d="M62.7952 167.794C62.819 167.799 61.7607 169.802 61.7607 169.802L55.5156 168.45L56.0423 166.572L62.7952 167.794Z" fill="white"/>
<path opacity="0.6" d="M78.1524 103.63C74.0833 104.427 74.5141 119.601 75.0037 127.406C76.1772 121.89 77.8948 111.274 79.0683 103.739C78.7983 103.604 78.4941 103.562 78.1524 103.63Z" fill="#0B0515"/>
<path d="M86.259 95.1865C86.259 95.1865 87.9143 118.371 87.577 127.827C87.2264 137.662 82.5629 169.867 82.5629 169.867H77.3099C77.3099 169.867 77.117 138.237 76.8836 128.577C76.6289 118.047 75.3574 95.1865 75.3574 95.1865H86.259Z" fill="#0B0515"/>
<path opacity="0.6" d="M83.5736 167.775C83.5978 167.775 83.2774 169.956 83.2774 169.956H76.8874L76.7148 168.01L83.5736 167.775Z" fill="white"/>
<path d="M84.1367 72.7281C84.1367 78.9499 87.4477 81.5116 87.4477 81.5116L92.8292 76.2507C92.8292 76.2507 90.9994 73.0981 88.4832 70.204C85.3741 66.6285 84.1367 68.7273 84.1367 72.7281Z" fill="#0B0515"/>
<path opacity="0.2" d="M82.7186 60.9702C82.5821 61.3515 82.2236 61.9979 81.323 62.2555C80.0095 62.6314 79.9922 63.7446 79.9922 63.7446L80.0085 63.7654C81.2617 63.3514 82.3051 62.3159 82.7186 60.9702Z" fill="#0B0515"/>
<path d="M81.3224 51.3723C82.4312 49.9742 80.7255 49.9074 80.7255 49.9074C81.1686 48.2384 79.1737 49.137 79.1737 49.137C77.9759 47.4862 77.3004 49.495 77.3004 49.495C76.0581 48.0964 75.8296 50.3822 75.8296 50.3822C74.5839 48.6083 73.9494 51.167 73.9494 51.167C72.802 49.3249 72.0998 51.7249 72.0998 51.7249C69.731 50.8767 70.857 53.3386 70.857 53.3386C68.8348 53.3954 70.4569 54.9597 70.4569 54.9597C68.0347 54.9656 70.1706 56.3528 70.1706 56.3528C68.2468 57.6148 70.6617 57.9546 70.6617 57.9546C69.092 60.409 71.7873 59.4985 71.7873 59.4985C70.6953 61.9277 73.1166 60.8575 73.1166 60.8575C72.9593 63.2016 74.3134 62.5637 74.9642 62.1295C75.0898 62.6018 75.3242 63.1017 75.7594 63.1586C76.6041 63.2689 76.7682 61.6745 76.7682 61.6745C76.7682 61.6745 77.5521 62.2843 78.2093 61.9539C78.8666 61.6236 78.6188 60.7873 78.6188 60.7873C78.6188 60.7873 79.1217 61.1627 79.5827 60.8046C79.8645 60.5855 79.866 59.0114 79.5065 58.458L80.7938 57.9541C80.7938 57.9541 81.7492 57.8196 81.3224 56.56C80.8962 55.3009 81.2577 54.3064 81.2577 54.3064C82.7106 53.6254 81.5188 52.8064 81.5188 52.8064C83.1987 51.7179 81.3224 51.3723 81.3224 51.3723Z" fill="#0B0515"/>
<path d="M78.7101 57.4053C78.9124 58.1857 79.4252 58.8562 79.9613 59.2553C80.7684 59.8557 81.3707 59.2647 81.3133 58.3518C81.2619 57.5299 80.7797 56.2273 79.8896 55.9835C79.0132 55.7431 78.4791 56.5131 78.7101 57.4053Z" fill="#924884"/>
</svg>
